PathFileType	4	(X/Y/Z)	C:/Users/dbak576/Desktop/Duncan Bakke Modelling Files/H28s1/Static_H28s1.trc	
DataRate	CameraRate	NumFrames	NumMarkers	Units	OrigDataRate	OrigDataStartFrame	OrigNumFrames	
200.00	200.00	4	61	mm	200.00	395	187	
Frame#	Time	LFHD			RFHD			LBHD			RBHD			C7			T10			CLAV			STRN			RBack			LASI			RASI			LPSI			RPSI			RACR1			RUA1			RElbow			RElbowM			RFA1			RWRR			RWRU			RCAR			LACR1			LUA1			LElbow			LElbowM			LFA1			LWRR			LWRU			LCAR			RTH1			RTH3			RTH2			RTH4			RLFC			RMFC			RTB1			RTB3			RTB2			RTB4			RLMAL			RMMAL			RCAL			RMT1			RMT5			RToe			LTH1			LTH3			LTH2			LTH4			LLFC			LMFC			LTB1			LTB3			LTB2			LTB4			LLMAL			LMMAL			LCAL			LMT1			LMT5			LToe			
		X1	Y1	Z1	X2	Y2	Z2	X3	Y3	Z3	X4	Y4	Z4	X5	Y5	Z5	X6	Y6	Z6	X7	Y7	Z7	X8	Y8	Z8	X9	Y9	Z9	X10	Y10	Z10	X11	Y11	Z11	X12	Y12	Z12	X13	Y13	Z13	X14	Y14	Z14	X15	Y15	Z15	X16	Y16	Z16	X17	Y17	Z17	X18	Y18	Z18	X19	Y19	Z19	X20	Y20	Z20	X21	Y21	Z21	X22	Y22	Z22	X23	Y23	Z23	X24	Y24	Z24	X25	Y25	Z25	X26	Y26	Z26	X27	Y27	Z27	X28	Y28	Z28	X29	Y29	Z29	X30	Y30	Z30	X31	Y31	Z31	X32	Y32	Z32	X33	Y33	Z33	X34	Y34	Z34	X35	Y35	Z35	X36	Y36	Z36	X37	Y37	Z37	X38	Y38	Z38	X39	Y39	Z39	X40	Y40	Z40	X41	Y41	Z41	X42	Y42	Z42	X43	Y43	Z43	X44	Y44	Z44	X45	Y45	Z45	X46	Y46	Z46	X47	Y47	Z47	X48	Y48	Z48	X49	Y49	Z49	X50	Y50	Z50	X51	Y51	Z51	X52	Y52	Z52	X53	Y53	Z53	X54	Y54	Z54	X55	Y55	Z55	X56	Y56	Z56	X57	Y57	Z57	X58	Y58	Z58	X59	Y59	Z59	X60	Y60	Z60	X61	Y61	Z61	

71	0.350	-9.24794	-325.05258	1446.90515	86.34848	-341.30734	1434.17944	-49.22116	-455.42029	1380.83728	82.21346	-476.36664	1371.15771	13.54048	-511.36752	1277.50586	23.99087	-575.84076	1072.59753	12.45368	-363.09161	1207.59021	10.03424	-312.67108	1108.70947	123.87208	-552.27429	1149.94189	-154.90353	-374.89630	830.29755	163.92720	-342.65137	832.27783	-25.71555	-623.24738	863.07703	77.12116	-606.69012	854.20050	158.35933	-474.78421	1261.46509	282.93042	-462.42233	1225.62158	400.64136	-430.35962	1197.99890	391.98026	-366.91263	1147.08362	512.84753	-408.09396	1244.98157	602.84778	-356.08395	1264.10522	613.50873	-384.13593	1199.12463	678.24127	-349.74854	1232.48389	-141.66019	-475.06183	1263.81042	-277.21759	-438.68591	1230.73865	-380.71298	-394.22015	1189.87549	-359.94540	-342.51764	1153.19104	-477.23813	-387.66708	1229.14722	-575.83246	-335.06326	1246.54089	-585.09473	-354.51450	1187.31860	-645.05182	-325.67880	1214.33447	221.26443	-425.24863	652.25391	190.29321	-442.03027	481.92502	189.01128	-377.79077	565.75763	210.14177	-435.00824	566.67645	173.77011	-480.11182	399.20615	34.36443	-456.13037	386.30826	140.29208	-429.22446	294.84445	143.23972	-442.29581	123.62188	189.32942	-478.40637	212.88791	141.42067	-439.52847	208.17261	181.02864	-491.85318	62.88345	99.75481	-473.77957	63.16585	135.44806	-545.02423	31.87315	125.43188	-374.23257	25.96683	216.49323	-406.81268	25.16301	162.37367	-321.09247	28.85590	-214.97577	-450.62503	673.23279	-192.39851	-460.18127	501.08282	-185.81433	-400.27664	588.88330	-209.62387	-453.75284	587.38318	-173.61298	-446.73843	405.69922	-32.32534	-448.74628	398.32291	-128.52820	-425.24084	298.61960	-151.98253	-447.02228	130.32809	-193.74774	-466.49619	224.38112	-139.33412	-439.28540	212.23102	-188.45073	-502.76825	64.07146	-112.19157	-474.22363	65.18086	-145.64703	-541.15570	41.38840	-140.46117	-374.21936	31.91516	-225.48163	-420.32700	22.50444	-171.93643	-320.64575	26.27026 
72	0.355	-9.15816	-325.03271	1446.90503	86.33544	-341.29446	1434.17334	-49.31318	-455.40033	1380.89221	82.18259	-476.35931	1371.15649	13.61383	-511.38388	1277.47070	23.99469	-575.86920	1072.59692	12.42041	-363.10538	1207.61780	9.72123	-312.82880	1108.81726	123.88462	-552.29462	1149.93982	-154.85451	-374.91647	830.25165	163.89932	-342.67969	832.28278	-25.69050	-623.27661	863.03986	77.01167	-606.84491	854.24506	158.34854	-474.78506	1261.45007	282.91733	-462.43365	1225.60181	400.64322	-430.36844	1197.97217	391.97559	-366.90778	1147.07654	512.87952	-408.07263	1244.96228	602.83960	-356.06940	1264.11243	613.54272	-384.17200	1199.11780	678.22168	-349.74606	1232.48962	-141.69002	-475.11630	1263.78174	-277.20685	-438.69861	1230.71973	-380.72690	-394.45676	1189.62024	-359.90381	-342.53476	1153.05188	-477.18619	-387.65240	1229.06018	-575.85382	-335.11429	1246.52991	-585.09576	-354.53967	1187.26501	-645.06281	-325.69571	1214.28674	221.28017	-425.31641	652.24872	190.22104	-441.89151	481.87900	189.00681	-377.80573	565.75018	210.05287	-434.95871	566.68927	173.75592	-480.09964	399.21448	34.36644	-455.99667	386.35846	140.30324	-429.21371	294.81323	143.23628	-442.30368	123.63512	189.32629	-478.39053	212.88319	141.41678	-439.54822	208.17305	180.88460	-491.83319	62.92029	99.75233	-473.77502	63.15657	135.46623	-545.02252	31.85308	125.59024	-374.06357	25.74192	215.90138	-406.61093	25.09265	162.28824	-321.08780	28.88285	-214.98210	-450.65738	673.24188	-192.38156	-460.18784	501.06180	-185.81732	-400.30820	588.89520	-209.63638	-453.79269	587.36060	-173.62657	-446.75073	405.71811	-32.32341	-448.74158	398.33017	-128.53510	-425.22787	298.61957	-151.93599	-447.04681	130.36639	-193.75679	-466.49667	224.37500	-139.33617	-439.28723	212.22707	-188.42152	-502.74936	64.01030	-112.19803	-474.21915	65.18257	-145.63414	-541.17566	41.38660	-140.45859	-374.20081	31.89951	-225.79491	-420.38565	22.84011	-171.97327	-320.62073	26.25879 
73	0.360	-9.11434	-325.05670	1446.86182	86.30843	-341.29218	1434.16089	-49.39431	-455.38300	1380.92761	82.15427	-476.34329	1371.15820	13.73755	-511.42273	1277.41345	23.98511	-575.89630	1072.59045	12.40140	-363.11484	1207.62146	9.36049	-312.96173	1108.96094	123.89149	-552.30994	1149.91895	-154.84508	-374.91241	830.22583	163.87621	-342.70026	832.26270	-25.66135	-623.29700	863.00903	76.78906	-607.17535	854.30499	158.36372	-474.79041	1261.44531	282.90784	-462.45343	1225.57349	400.66660	-430.41116	1197.95898	391.97186	-366.89395	1147.08374	512.91040	-408.04953	1244.94946	602.82965	-356.05902	1264.11877	613.54669	-384.20993	1199.11401	678.20007	-349.74139	1232.49194	-141.70779	-475.16464	1263.74829	-277.22021	-438.70490	1230.68616	-380.72717	-394.65799	1189.36621	-359.87070	-342.55060	1152.94885	-477.16196	-387.65924	1228.98352	-575.90057	-335.15189	1246.52271	-585.08838	-354.56961	1187.20911	-645.07306	-325.69910	1214.24146	221.30110	-425.36899	652.23236	190.15669	-441.74948	481.85092	189.00058	-377.81815	565.74658	209.98274	-434.93918	566.67273	173.74228	-480.08786	399.21878	34.38937	-455.87036	386.39157	140.32962	-429.19141	294.76706	143.24860	-442.30743	123.66801	189.32651	-478.37811	212.86859	141.41772	-439.56662	208.17351	180.88469	-491.83786	62.86802	99.75323	-473.77057	63.14974	135.52458	-545.01044	31.79557	125.74304	-373.90903	25.55933	215.78743	-406.50922	25.07121	162.28142	-321.09952	28.93237	-214.97057	-450.69058	673.24414	-192.36613	-460.23715	501.03497	-185.82547	-400.32376	588.90649	-209.62466	-453.82886	587.35773	-173.63435	-446.75409	405.73941	-32.31629	-448.73361	398.33810	-128.53862	-425.21680	298.62402	-151.92758	-447.06177	130.37054	-193.77571	-466.53152	224.36945	-139.34636	-439.29349	212.22778	-188.40900	-502.72040	63.99442	-112.21186	-474.21219	65.18548	-145.62842	-541.17139	41.38010	-140.44821	-374.17136	31.89438	-225.76460	-420.40039	22.82084	-171.99942	-320.60056	26.25924 
74	0.365	-9.07905	-325.09662	1446.80713	86.25803	-341.30588	1434.13171	-49.45253	-455.38013	1380.93921	82.12843	-476.32498	1371.15857	13.83685	-511.43515	1277.40137	23.96700	-575.94208	1072.59180	12.38620	-363.12650	1207.61572	9.03110	-312.95364	1109.10229	123.86899	-552.30725	1149.86218	-154.84035	-374.90799	830.16681	163.85991	-342.71469	832.23431	-25.65550	-623.31720	863.04675	76.53143	-607.49139	854.42401	158.39609	-474.79620	1261.44995	282.89859	-462.47232	1225.55518	400.67950	-430.46191	1197.97974	391.96851	-366.87091	1147.07898	512.92993	-408.02344	1244.96033	602.83130	-356.05878	1264.10120	613.52557	-384.24713	1199.10950	678.17358	-349.73221	1232.49414	-141.71181	-475.19806	1263.71875	-277.24686	-438.73224	1230.65417	-380.72101	-394.78168	1189.19165	-359.84940	-342.56662	1152.88904	-477.17236	-387.67609	1228.93665	-575.93481	-335.17960	1246.50684	-585.07520	-354.59406	1187.16382	-645.07513	-325.72235	1214.21191	221.32520	-425.40381	652.20111	190.10165	-441.60367	481.83777	188.99136	-377.82663	565.74652	209.93500	-434.95096	566.64307	173.73390	-480.07660	399.21292	34.42686	-455.75598	386.40073	140.35007	-429.17114	294.72446	143.25005	-442.29190	123.68008	189.32651	-478.36972	212.85411	141.41658	-439.58191	208.17314	180.91064	-491.87009	62.86174	99.76648	-473.76981	63.15833	135.59065	-544.99536	31.73557	125.87386	-373.80170	25.43630	216.07610	-406.52631	25.12252	162.34303	-321.12051	28.97651	-214.95424	-450.71097	673.24225	-192.36862	-460.27466	501.01675	-185.83861	-400.33734	588.91364	-209.59335	-453.87582	587.36847	-173.63867	-446.75156	405.75394	-32.30299	-448.72406	398.35324	-128.53493	-425.20831	298.63269	-151.95232	-447.06384	130.35965	-193.79895	-466.58707	224.36142	-139.35364	-439.30023	212.23264	-188.41963	-502.70105	63.99420	-112.22394	-474.20535	65.18916	-145.65453	-541.14813	41.37145	-140.42712	-374.14877	31.87788	-225.60999	-420.39438	22.66004	-172.00208	-320.59415	26.27937 
